<svg xmlns="http://www.w3.org/2000/svg" width="330" height="220" viewBox="-153 -98 330 220">
  <path fill="#F2F2F2" d="M-153-98h330v220h-330z"/>
  <g fill="#B3B3B3">
    <path d="M-30.34 51.076c-2.082 0-3.775-1.693-3.775-3.777V2.013c0-2.082 1.693-3.774 3.775-3.774h7.55c3.403 0 6.942-1.506 9.694-3.84l-2.672-2.67c-2.04 1.65-4.613 2.734-7.023 2.734h-7.55c-4.152 0-7.547 3.397-7.547 7.55V47.3c0 4.156 3.395 7.555 7.547 7.555h77.69l-3.77-3.778h-73.92z"/>
    <path d="M-7.696 20.883c0 10.423 8.448 18.87 18.87 18.87 5.783 0 10.885-2.647 14.346-6.736l-2.678-2.675c-2.775 3.412-6.945 5.635-11.668 5.635-8.322 0-15.096-6.772-15.096-15.094 0-4.726 2.227-8.897 5.64-11.67L-.96 6.537C-5.046 10-7.695 15.107-7.695 20.883zM59.215 61.373l2.672-2.672-5.09-5.084c2.06-1.354 3.443-3.68 3.443-6.317V2.013c0-4.152-3.398-7.55-7.55-7.55h-7.55c-4.146 0-8.81-3.155-10.35-7.01l-1.945-4.848c-1.537-3.858-6.197-7.012-10.35-7.012H-.148c-4.152 0-8.81 3.153-10.35 7.01l-1.064 2.654-22.633-22.633-2.67 2.67 96.08 96.078zM9.17 5.99c.66-.09 1.316-.204 2.004-.204 8.328 0 15.102 6.775 15.102 15.097 0 .688-.115 1.345-.21 2.01L9.17 5.99zM-6.995-15.994c.97-2.428 4.236-4.64 6.848-4.64h22.643c2.615 0 5.875 2.212 6.842 4.64l1.952 4.857c2.102 5.255 8.184 9.376 13.85 9.376h7.55c2.08 0 3.772 1.69 3.772 3.773v45.285c0 1.624-1.037 2.982-2.477 3.513L29.235 26.057c.473-1.652.813-3.366.813-5.174 0-10.424-8.45-18.87-18.873-18.87-1.807 0-3.522.335-5.173.808L-8.66-11.84l1.666-4.154z"/>
  </g>
</svg>
